<?xml version="1.0" standalone="no"?>
<!DOCTYPE svg PUBLIC "-//W3C//DTD SVG 20010904//EN"
 "http://www.w3.org/TR/2001/REC-SVG-20010904/DTD/svg10.dtd">
<svg version="1.0" xmlns="http://www.w3.org/2000/svg"
 width="840.000000pt" height="840.000000pt" viewBox="0 0 840.000000 840.000000"
 preserveAspectRatio="xMidYMid meet">
<metadata>
Created by potrace 1.14, written by Peter Selinger 2001-2017
</metadata>
<g transform="translate(0.000000,840.000000) scale(0.100000,-0.100000)"
fill="#000000" stroke="none">
<path d="M4176 8153 c-13 -27 -81 -174 -151 -328 -70 -154 -140 -307 -155
-340 -28 -59 -212 -459 -317 -690 -58 -128 -83 -181 -131 -285 -80 -173 -102
-222 -102 -225 0 -3 -77 -169 -135 -290 -13 -27 -42 -89 -63 -136 -22 -47 -44
-89 -50 -93 -6 -4 -51 -11 -99 -17 -48 -5 -160 -19 -248 -29 -88 -11 -185 -22
-215 -25 -30 -2 -109 -12 -175 -20 -66 -8 -203 -24 -305 -35 -102 -12 -257
-30 -345 -40 -88 -11 -239 -28 -335 -40 -96 -11 -249 -29 -340 -40 -91 -10
-250 -29 -355 -41 -256 -28 -255 -28 -255 -42 0 -12 144 -149 450 -427 144
-131 194 -177 234 -216 17 -17 110 -102 206 -189 96 -88 195 -178 220 -202 50
-47 47 -45 286 -262 93 -85 185 -171 205 -190 50 -49 219 -205 301 -277 49
-43 67 -66 68 -85 0 -22 -92 -496 -134 -689 -8 -36 -24 -112 -35 -170 -12 -58
-55 -274 -96 -480 -42 -206 -93 -465 -115 -575 -21 -110 -62 -312 -90 -449
-27 -137 -50 -253 -50 -257 0 -21 43 -1 284 136 141 80 259 145 263 145 4 0
14 6 22 14 9 7 52 33 96 56 44 24 109 60 145 80 61 35 481 272 580 328 121 67
747 418 825 463 22 12 64 36 92 51 l52 29 70 -40 c38 -23 72 -41 74 -41 3 0
95 -52 206 -115 110 -63 202 -115 204 -115 2 0 44 -23 93 -51 49 -29 107 -61
129 -73 22 -12 132 -74 245 -138 113 -63 349 -197 525 -296 176 -99 425 -239
554 -311 135 -77 237 -129 243 -123 5 5 -19 143 -56 328 -36 175 -87 432 -114
569 -76 379 -230 1150 -247 1235 -37 183 -47 230 -60 305 -8 44 -19 96 -25
115 -20 69 -14 88 42 138 60 53 165 150 284 261 97 92 145 136 294 271 109 98
145 132 260 240 26 25 62 59 81 76 130 117 287 260 300 273 56 54 150 141 254
236 66 60 154 141 196 179 42 39 117 109 167 156 51 46 92 87 92 92 0 9 -16
11 -265 38 -110 11 -247 27 -305 35 -58 8 -134 17 -170 21 -36 3 -112 12 -170
19 -58 8 -132 17 -165 20 -56 5 -228 26 -510 60 -66 9 -167 20 -225 25 -58 6
-157 17 -220 25 -63 8 -196 24 -295 35 -300 35 -349 41 -356 46 -7 4 -89 170
-89 179 0 3 -17 42 -39 87 -64 137 -178 386 -343 748 -32 70 -72 156 -122 262
-25 54 -46 100 -46 103 0 5 -26 61 -174 378 -25 54 -46 100 -46 102 0 2 -17
41 -39 87 -90 195 -116 249 -168 366 -30 67 -59 122 -64 122 -5 0 -19 -21 -33
-47z m989 -2703 c243 -62 390 -160 510 -341 120 -181 185 -373 236 -699 18
-113 19 -613 1 -730 -55 -367 -155 -627 -305 -797 -122 -138 -257 -212 -471
-260 -100 -22 -414 -22 -512 0 -177 40 -298 98 -403 194 -91 83 -140 148 -202
271 -70 139 -122 303 -147 462 -6 36 -16 99 -23 140 -17 102 -17 609 0 710 31
183 44 250 66 325 119 413 316 628 660 720 146 40 443 42 590 5z m-1857 -1439
c2 -1117 0 -1406 -10 -1413 -15 -9 -519 -11 -542 -2 -14 6 -16 117 -16 1160
l0 1154 -182 2 -183 3 -3 253 -2 252 467 -2 468 -3 3 -1404z"/>
<path d="M4795 4955 c-106 -16 -168 -46 -232 -112 -54 -55 -110 -157 -133
-242 -35 -133 -42 -203 -47 -501 -7 -419 14 -578 96 -745 43 -87 104 -156 164
-187 53 -27 180 -58 237 -58 58 0 185 32 237 59 133 71 215 229 248 481 21
157 21 626 0 774 -21 147 -32 188 -75 281 -66 145 -159 222 -293 245 -99 16
-122 17 -202 5z"/>
</g>
</svg>
